<?xml version="1.0" standalone="no"?>
<!DOCTYPE svg PUBLIC "-//W3C//DTD SVG 20010904//EN"
 "http://www.w3.org/TR/2001/REC-SVG-20010904/DTD/svg10.dtd">
<svg version="1.0" xmlns="http://www.w3.org/2000/svg"
 width="600.000000pt" height="600.000000pt" viewBox="0 0 600.000000 600.000000"
 preserveAspectRatio="xMidYMid meet">
<metadata>
Created by potrace 1.14, written by Peter Selinger 2001-2017
</metadata>
<g transform="translate(0.000000,600.000000) scale(0.100000,-0.100000)"
fill="#000000" stroke="none">
<path d="M2924 5891 c-95 -44 -98 -114 -11 -225 l31 -39 -51 5 c-39 4 -74 19
-153 66 -109 65 -148 78 -204 68 -62 -12 -107 -90 -105 -181 l1 -40 10 35 c22
77 55 85 196 46 133 -38 164 -40 248 -20 70 16 76 16 92 1 15 -16 14 -17 -11
-17 -46 0 -133 -48 -176 -96 -49 -55 -75 -129 -76 -209 0 -85 26 -145 87 -200
81 -73 194 -94 302 -56 l53 18 48 -91 c138 -260 252 -364 393 -357 24 1 72 42
72 62 0 6 -9 0 -21 -15 -35 -45 -83 -30 -160 51 -58 60 -91 109 -189 281 l-78
136 16 31 c23 42 22 149 -2 195 -26 49 -65 89 -105 106 -80 34 -188 1 -227
-69 -23 -42 -30 -123 -13 -147 9 -12 10 -12 5 4 -4 10 1 29 9 42 22 34 66 32
109 -6 34 -31 96 -118 96 -137 0 -5 -18 -18 -39 -28 -59 -26 -148 -18 -196 19
-107 82 -99 286 15 376 56 44 110 60 196 57 73 -2 74 -1 42 12 -18 7 -52 16
-75 19 -26 3 -50 13 -64 28 -12 13 -19 24 -16 24 4 0 -2 9 -12 19 -11 11 -23
36 -27 55 -8 48 14 82 66 97 33 10 43 9 66 -5 20 -14 25 -24 22 -47 -4 -23 -2
-26 9 -17 21 17 43 64 43 91 0 13 -11 34 -25 47 -35 33 -132 39 -191 11z m150
-524 c47 -29 96 -100 96 -140 l0 -31 -37 44 c-54 62 -117 100 -169 100 -24 0
-46 -4 -49 -10 -3 -5 -10 -10 -16 -10 -16 0 -10 20 16 45 33 34 104 34 159 2z"/>
<path d="M3700 5719 c-2 -41 91 -159 156 -200 l34 -21 0 -1431 -1 -1432 -29
33 c-39 42 -39 27 0 -26 55 -76 127 -118 349 -202 203 -76 276 -121 323 -195
18 -27 19 -28 13 -5 -12 42 -44 88 -88 126 -47 40 -173 103 -259 130 l-58 18
0 1335 c0 877 -4 1358 -11 1401 -20 129 -64 184 -234 295 -105 69 -160 117
-183 160 -6 11 -12 17 -12 14z m261 -266 l29 -17 0 -1428 c0 -785 -2 -1428 -5
-1428 -4 0 -19 7 -35 15 l-30 16 0 1429 c0 787 3 1430 6 1430 3 0 19 -8 35
-17z"/>
<path d="M2920 5245 c-19 -23 -8 -50 22 -53 22 -3 29 2 34 23 10 40 -30 61
-56 30z"/>
<path d="M2777 5003 c-4 -3 -7 -17 -7 -30 0 -18 6 -23 24 -23 13 0 27 7 30 16
11 28 -27 57 -47 37z"/>
<path d="M2900 4886 c0 -29 28 -42 48 -22 20 20 8 46 -23 46 -20 0 -25 -5 -25
-24z"/>
<path d="M2779 3938 l-4 -943 -28 -37 c-89 -115 -90 -297 -3 -410 l26 -35 0
-556 c0 -488 2 -557 15 -557 13 0 15 67 15 541 0 297 3 539 8 537 4 -1 26 -12
50 -22 l42 -20 0 -518 c0 -454 2 -518 15 -518 13 0 15 51 15 403 0 221 3 452
6 512 l7 110 48 -3 49 -4 0 -509 c0 -446 2 -509 15 -509 13 0 15 53 16 413 1
226 4 459 8 516 l6 104 43 18 42 18 0 -534 c0 -469 2 -535 15 -535 13 0 15 67
15 546 l0 546 31 36 c109 124 108 321 -1 445 l-29 34 6 791 c6 700 5 792 -9
792 -13 0 -16 -62 -21 -472 -4 -260 -7 -611 -7 -780 l0 -308 -45 22 -45 22 0
813 c0 716 -2 813 -15 813 -13 0 -15 -97 -15 -810 l0 -810 -55 0 -55 0 0 845
c0 744 -2 845 -15 845 -13 0 -15 -101 -15 -848 l0 -848 -45 -22 c-25 -12 -48
-22 -50 -22 -3 0 -5 416 -5 925 0 786 -2 925 -14 925 -12 0 -15 -143 -17 -942z"/>
<path d="M3047 4793 c-4 -3 -7 -17 -7 -30 0 -18 6 -23 24 -23 13 0 27 7 30 16
11 28 -27 57 -47 37z"/>
<path d="M3595 4719 c-10 -30 18 -58 43 -43 9 6 17 22 17 35 0 34 -50 41 -60
8z"/>
<path d="M3175 4684 c-18 -19 -19 -26 -3 -42 7 -7 15 -12 19 -12 15 0 38 31
33 45 -9 21 -32 26 -49 9z"/>
<path d="M2479 4024 c-59 -18 -142 -92 -173 -153 -57 -112 -82 -293 -68 -491
10 -131 6 -142 -56 -158 l-37 -9 43 -12 c23 -6 48 -22 56 -34 14 -22 74 -450
97 -692 16 -165 7 -409 -19 -502 -49 -178 -137 -237 -243 -162 -43 31 -43 31
-19 4 53 -57 135 -73 212 -41 72 30 159 142 204 263 49 129 59 203 58 413 0
201 -10 292 -60 578 -13 78 -22 147 -19 152 3 5 25 15 48 21 l42 12 -47 13
c-27 8 -52 23 -58 35 -18 33 -50 278 -50 386 0 181 34 264 124 298 41 16 50
16 83 4 26 -10 44 -26 55 -49 l18 -35 0 35 c0 19 -9 49 -20 67 -37 61 -96 81
-171 57z"/>
<path d="M3416 4030 c-55 -17 -96 -73 -96 -132 l1 -33 14 33 c32 73 135 76
202 5 47 -49 63 -115 63 -252 0 -123 -11 -205 -84 -631 -76 -444 -84 -678 -32
-882 50 -195 155 -343 265 -371 75 -19 126 -7 171 41 19 20 24 27 10 15 -86
-72 -175 -53 -224 50 -43 87 -57 163 -63 319 -7 171 3 290 57 704 51 391 64
579 50 717 -17 174 -56 273 -133 344 -72 66 -140 91 -201 73z"/>
<path d="M2554 3870 c-26 -10 -54 -48 -54 -72 0 -30 21 -65 47 -77 51 -23 112
17 113 75 0 29 -30 74 -50 74 -4 0 -14 2 -22 4 -7 3 -23 1 -34 -4z"/>
<path d="M3381 3869 c-73 -29 -65 -133 12 -153 74 -18 126 71 75 128 -28 30
-55 38 -87 25z"/>
<path d="M4315 3521 c-62 -26 -82 -116 -36 -165 32 -34 81 -43 122 -22 42 21
51 11 51 -51 0 -63 -22 -105 -75 -144 -50 -37 -21 -32 57 10 121 65 157 206
79 310 -43 56 -138 86 -198 62z"/>
<path d="M2048 3256 c-25 -18 -50 -35 -57 -37 -18 -6 88 -81 115 -81 46 0 69
37 38 63 -14 11 -14 13 0 21 35 19 7 68 -38 68 -8 0 -34 -15 -58 -34z"/>
<path d="M2548 3279 c-21 -11 -23 -40 -6 -57 8 -8 8 -15 -1 -26 -21 -25 -4
-56 31 -56 28 0 128 55 127 70 0 10 -88 69 -110 74 -13 3 -32 1 -41 -5z"/>
<path d="M4250 3064 c46 -20 69 -42 87 -84 15 -36 32 -211 33 -330 l0 -65 41
-13 c55 -17 96 -49 126 -97 l25 -40 -6 150 c-11 309 -79 430 -271 481 -65 18
-79 17 -35 -2z"/>
<path d="M2055 2408 c-32 -17 -45 -39 -45 -77 1 -42 17 -66 51 -80 36 -13 76
-2 99 27 29 36 26 78 -9 113 -31 30 -62 36 -96 17z"/>
<path d="M3862 2410 c-13 -6 -29 -26 -38 -45 -12 -30 -12 -40 0 -69 39 -94
183 -45 161 56 -12 53 -68 80 -123 58z"/>
<path d="M4082 2386 c147 -60 254 -195 299 -376 19 -77 17 -259 -4 -339 -54
-201 -191 -343 -365 -380 -29 -6 -64 -11 -77 -11 l-25 0 0 124 c0 90 4 128 13
138 11 11 10 18 -5 43 -11 19 -18 24 -18 14 0 -9 -7 -22 -15 -29 -13 -11 -13
-14 0 -27 12 -12 15 -63 17 -296 1 -155 3 -252 5 -215 l4 68 52 0 c75 0 171
25 253 66 313 155 435 566 269 911 -75 154 -201 261 -369 312 -90 28 -105 26
-34 -3z"/>
<path d="M1833 2375 c-119 -46 -229 -136 -298 -245 -43 -69 -84 -192 -97 -293
-10 -78 -9 -107 5 -190 54 -316 266 -518 571 -546 l71 -6 6 -65 c3 -36 6 65 7
223 2 243 4 289 17 293 12 5 12 9 -3 30 -21 29 -26 30 -39 2 -7 -16 -6 -30 4
-48 8 -16 13 -65 13 -139 l0 -114 -59 6 c-157 17 -294 116 -373 270 -55 109
-76 333 -43 462 41 159 146 301 265 358 68 33 37 34 -47 2z"/>
<path d="M2055 2010 c-37 -15 -49 -40 -46 -97 1 -29 43 -56 83 -55 69 2 98 92
44 138 -28 25 -47 28 -81 14z"/>
<path d="M3856 1998 c-18 -15 -27 -33 -28 -55 -1 -38 25 -83 50 -84 9 0 31 -1
49 -2 17 -1 29 0 27 2 -2 2 3 12 12 22 22 24 21 87 -3 110 -31 31 -76 34 -107
7z"/>
<path d="M2162 1089 c-2 -227 -4 -268 -17 -273 -19 -7 -19 -30 -1 -45 29 -24
68 16 41 43 -12 11 -15 44 -15 145 l0 131 49 0 c65 0 168 -33 219 -69 22 -17
53 -52 69 -78 24 -41 28 -59 28 -123 0 -60 -5 -86 -27 -132 -48 -104 -149
-191 -266 -229 l-57 -19 45 6 c79 10 193 44 253 76 201 108 286 312 203 493
-64 141 -234 242 -439 261 l-76 7 -4 36 c-2 20 -4 -84 -5 -230z"/>
<path d="M3822 1319 l-2 -36 -67 -6 c-209 -20 -377 -117 -442 -256 -33 -73
-41 -187 -16 -260 53 -159 239 -287 460 -314 l50 -7 -40 14 c-127 41 -226 124
-275 228 -51 106 -39 231 28 302 60 63 162 106 254 106 l48 0 0 -135 c0 -83
-4 -135 -10 -135 -17 0 -11 -47 6 -54 19 -7 44 10 44 29 0 7 -7 18 -15 25 -12
10 -15 57 -18 274 -1 143 -3 245 -5 225z"/>
<path d="M2760 1311 c-7 -15 -6 -23 5 -35 28 -27 69 10 44 40 -16 20 -37 17
-49 -5z"/>
<path d="M2900 1315 c-18 -21 -5 -45 25 -45 20 0 25 5 25 24 0 13 -7 27 -16
30 -21 8 -20 8 -34 -9z"/>
<path d="M3032 1321 c-23 -14 -10 -46 18 -46 16 0 26 6 28 19 3 16 -12 36 -28
36 -3 0 -11 -4 -18 -9z"/>
<path d="M3160 1316 c-18 -22 -5 -46 25 -46 23 0 26 4 23 27 -3 32 -29 41 -48
19z"/>
<path d="M2915 1076 c-75 -34 -119 -103 -119 -191 -1 -226 288 -292 381 -87
32 68 27 134 -14 201 -50 79 -163 115 -248 77z"/>
<path d="M2740 643 c-37 -10 -60 -28 -70 -54 -17 -40 3 -95 44 -120 39 -24 55
-25 26 -1 -13 11 -22 30 -23 51 -2 33 0 35 32 35 39 1 57 22 48 58 -7 26 -30
38 -57 31z"/>
<path d="M3193 639 c-24 -9 -34 -30 -26 -58 6 -22 43 -37 67 -28 36 14 25 -71
-11 -92 -10 -6 -14 -11 -10 -11 5 0 22 8 38 17 32 19 55 66 50 103 -6 50 -62
86 -108 69z"/>
<path d="M2064 600 c-83 -33 -61 -161 28 -160 41 1 65 18 79 58 14 41 -9 86
-52 101 -18 6 -32 11 -33 10 -1 0 -11 -4 -22 -9z"/>
<path d="M3874 600 c-55 -21 -70 -94 -29 -135 40 -41 105 -33 131 17 36 69
-31 146 -102 118z"/>
<path d="M2903 583 c-19 -7 -16 -50 3 -57 19 -7 44 10 44 30 0 16 -30 33 -47
27z"/>
<path d="M3056 574 c-17 -16 -12 -40 9 -48 19 -7 46 20 39 39 -8 21 -32 26
-48 9z"/>
<path d="M2986 510 c-10 -63 -43 -128 -74 -144 -25 -13 -25 -14 -4 -20 29 -10
59 -62 75 -132 l14 -59 7 50 c8 58 42 125 73 140 l21 11 -21 9 c-29 14 -59 69
-73 135 l-11 55 -7 -45z"/>
</g>
</svg>
